# xmcd CD database file
#
# Track frame offsets:
#	150
#	12950
#	26920
#	40510
#	50845
#	62365
#	73927
#	83737
#	100840
#	109990
#	120360
#	142355
#
# Disc length: 2144 seconds
#
# Revision: 0
# Processed by: cddbd v1.5.2PL0 Copyright (c) Steve Scherf et al.
# Submitted via: CDex 1.70beta2
#
DISCID=a6085e0c
DTITLE=Farmáři - Čekám dál...
DYEAR=1900
DGENRE=Country
TTITLE0=Čekám dál...
TTITLE1=kamarád kůň
TTITLE2=Dávno
TTITLE3=Obyčejnej chlap
TTITLE4=Princezna
TTITLE5=Starý údolí
TTITLE6=Krásnej sen
TTITLE7=Padá déšť
TTITLE8=nejsem už ta holka
TTITLE9=Šedivej den
TTITLE10=Pohled
TTITLE11=Díky vám, pane Tučný
EXTD=
EXTT0=
EXTT1=
EXTT2=
EXTT3=
EXTT4=
EXTT5=
EXTT6=
EXTT7=
EXTT8=
EXTT9=
EXTT10=
EXTT11=
PLAYORDER=
